<svg data-v-0dd9719b="" version="1.0" xmlns="http://www.w3.org/2000/svg" xmlns:xlink="http://www.w3.org/1999/xlink" width="238.01" height="61.48">
    <!--<rect data-v-0dd9719b="" x="0" y="0" width="714.03" height="184.44" fill="#ff0000" fill-opacity="1" class="background"></rect>-->
    <g data-v-0dd9719b="" fill="#1c085d" class="icon-text-wrapper icon-svg-group iconsvg">
        <g class="iconsvg-imagesvg" transform="translate(0,0)">
            <g>
                <rect fill="#1c085d" fill-opacity="0" stroke-width="2" x="0" y="0" width="55.20000000000001" height="61.478833238664855" class="image-rect"></rect>
                <svg x="0" y="0" width="55.20000000000001" height="61.478833238664855" filtersec="colorsb8324988551" class="image-svg-svg primary" style="overflow: visible;">
                    <svg xmlns="http://www.w3.org/2000/svg" viewBox="0 -0.0028373277746140957 89.81000518798828 100.02556610107422">
                        <title>资源 134</title>
                        <path d="M64.35 47.87c-.58 0-1.17 0-1.74.05.34.73.66 1.46 1 2.2a64.86 64.86 0 0 1 5.14 25.46 65.77 65.77 0 0 1-1.34 13.26L84.44 79a11.89 11.89 0 0 0 5.37-9.28v-10a33.48 33.48 0 0 0-25.46-11.85zM21.49 69a9.3 9.3 0 0 1 9.3-9.31 9.07 9.07 0 0 1 1.66.15 39.44 39.44 0 0 1 4.73-5.73 38.15 38.15 0 0 1 15.09-9.32 58 58 0 0 0-41.94-26.64L5.38 21A11.9 11.9 0 0 0 0 30.28v39.44A11.9 11.9 0 0 0 5.38 79l22 12.68a38.86 38.86 0 0 1-1.19-14.63 9.3 9.3 0 0 1-4.7-8.05z"
                        fill="#1c085d"></path>
                        <path d="M84.44 21L50.28 1.28a11.86 11.86 0 0 0-10.73 0L20.29 12.4a64 64 0 0 1 8.49 2.92 65.23 65.23 0 0 1 20.79 14 65.61 65.61 0 0 1 10.52 13.76 37.62 37.62 0 0 1 4.26-.24 38.33 38.33 0 0 1 25.46 9.64v-22.2A11.92 11.92 0 0 0 84.44 21z" fill="#eb001b"></path>
                        <path d="M37 62.08a9.31 9.31 0 0 1-5.95 16.2c-.08 1-.13 2-.13 3a33.2 33.2 0 0 0 3.26 14.39l5.33 3.07a11.84 11.84 0 0 0 10.72 0l7.87-4.54a57.76 57.76 0 0 0-3.27-44.94A33.46 33.46 0 0 0 37 62.08z" fill="#1c085d"></path>
                    </svg>
                </svg>
                <!---->
            </g>
        </g>
        <g transform="translate(62.20000076293945,3.9662647247314453)">
            <g data-gra="path-name" fill-rule="" class="tp-name iconsvg-namesvg" transform="translate(0,0)">
                <g transform="scale(1)">
                    <g>
                        <path d="M24.29 0L3.95 0 3.95-7.23 22.47-7.23Q26.9-7.23 28.36-8.08L28.36-8.08Q30.49-9.35 30.49-11.9L30.49-11.9Q30.49-14.88 28-16.21L28-16.21Q26.6-17 23.5-17L23.5-17 15.97-17Q9.11-17 6.07-19.49L6.07-19.49Q4.19-21.07 3.13-23.44 2.06-25.81 2.06-28.54L2.06-28.54Q2.06-32.79 4.55-36.32L4.55-36.32Q6.98-39.72 12.33-40.32L12.33-40.32Q14.15-40.51 17.73-40.51L17.73-40.51 37.83-40.51 37.83-33.28 19.68-33.28Q15.61-33.22 14.27-32.91L14.27-32.91Q11.54-32.25 11.54-28.79L11.54-28.79Q11.54-25.87 13.85-24.9L13.85-24.9Q15.36-24.17 18.95-24.17L18.95-24.17 25.45-24.17Q30.43-24.17 32.85-23.32L32.85-23.32Q37.17-21.86 38.81-18.22L38.81-18.22Q40.08-15.3 40.08-11.96L40.08-11.96Q40.08-8.26 38.38-5.34L38.38-5.34Q36.01-1.21 31.28-0.36L31.28-0.36Q28.97 0 24.29 0L24.29 0ZM68.81-14.15L54.96-14.15 54.96 0 46.34 0 46.34-40.51 66.56-40.51Q72.09-40.51 74.45-39.72L74.45-39.72Q78.46-38.38 80.77-34.19L80.77-34.19Q82.47-31.03 82.47-27.33L82.47-27.33Q82.47-24.23 81.35-21.47 80.22-18.7 78.22-16.94L78.22-16.94Q76.4-15.36 74.36-14.76 72.33-14.15 68.81-14.15L68.81-14.15ZM54.96-33.28L54.96-21.38 66.68-21.38Q69.84-21.38 71.11-22.35L71.11-22.35Q73-23.87 73-27.63L73-27.63Q73-31.7 70.14-32.85L70.14-32.85Q69.11-33.28 66.86-33.28L66.86-33.28 54.96-33.28ZM87.75-40.51L100.32-40.51 110.4-8.87 121.03-40.51 133.6-40.51 133.6 0 125.4 0 125.4-30.36 114.84 0 105.97 0 95.95-30.36 95.95 0 87.75 0 87.75-40.51ZM162.09 0L141.74 0 141.74-7.23 160.26-7.23Q164.7-7.23 166.15-8.08L166.15-8.08Q168.28-9.35 168.28-11.9L168.28-11.9Q168.28-14.88 165.79-16.21L165.79-16.21Q164.39-17 161.3-17L161.3-17 153.77-17Q146.9-17 143.87-19.49L143.87-19.49Q141.98-21.07 140.92-23.44 139.86-25.81 139.86-28.54L139.86-28.54Q139.86-32.79 142.35-36.32L142.35-36.32Q144.78-39.72 150.12-40.32L150.12-40.32Q151.94-40.51 155.53-40.51L155.53-40.51 175.63-40.51 175.63-33.28 157.47-33.28Q153.4-33.22 152.06-32.91L152.06-32.91Q149.33-32.25 149.33-28.79L149.33-28.79Q149.33-25.87 151.64-24.9L151.64-24.9Q153.16-24.17 156.74-24.17L156.74-24.17 163.24-24.17Q168.22-24.17 170.65-23.32L170.65-23.32Q174.96-21.86 176.6-18.22L176.6-18.22Q177.87-15.3 177.87-11.96L177.87-11.96Q177.87-8.26 176.17-5.34L176.17-5.34Q173.81-1.21 169.07-0.36L169.07-0.36Q166.76 0 162.09 0L162.09 0Z"
                        transform="translate(-2.059999942779541, 40.5099983215332)"></path>
                    </g>
                    <!---->
                    <!---->
                    <!---->
                    <!---->
                    <!---->
                    <!---->
                    <!---->
                </g>
            </g>
            <g data-gra="path-slogan" fill-rule="" class="tp-slogan iconsvg-slogansvg" fill="#1c085d" transform="translate(0.404998779296875,46.5099983215332)">
                <!---->
                <!---->
                <g transform="scale(1, 1)">
                    <g transform="scale(1)">
                        <path d="M2.17 0.37L2.05 0.37Q0.83 0.37 0.05 0.25L0.05 0.25L0.18-0.79Q1.31-0.65 2.17-0.65L2.17-0.65L2.29-0.65Q2.87-0.65 3.21-0.76Q3.55-0.87 3.70-1.08Q3.85-1.30 3.88-1.63L3.88-1.63Q3.90-1.80 3.90-1.86L3.90-1.86Q3.90-2.19 3.76-2.35Q3.61-2.52 3.31-2.59Q3.02-2.66 2.44-2.74L2.44-2.74Q1.77-2.81 1.38-2.97Q0.99-3.12 0.80-3.43Q0.61-3.73 0.61-4.24L0.61-4.24Q0.61-4.44 0.64-4.69L0.64-4.69Q0.76-5.74 1.34-6.18Q1.93-6.63 3.13-6.63L3.13-6.63L3.78-6.63Q4.49-6.63 5.34-6.61L5.34-6.61L5.22-5.59Q4.73-5.59 4.47-5.60L4.47-5.60L3.66-5.61L3.01-5.61Q2.34-5.61 2.03-5.37Q1.72-5.14 1.72-4.48L1.72-4.48Q1.72-4.19 1.83-4.05Q1.94-3.90 2.13-3.85Q2.33-3.79 2.76-3.73L2.76-3.73Q2.85-3.72 3.10-3.68L3.10-3.68Q3.78-3.58 4.19-3.41Q4.60-3.25 4.80-2.93Q5.01-2.62 5.01-2.10L5.01-2.10Q5.01-1.90 4.98-1.68L4.98-1.68Q4.89-0.91 4.58-0.46Q4.26-0.02 3.68 0.18Q3.10 0.37 2.17 0.37L2.17 0.37ZM6.48-6.63L7.69-6.63L9.22-0.94L9.25-0.94L12.19-6.63L13.40-6.63L12.55 0.33L11.54 0.33L12.15-4.58L9.75 0.05Q9.60 0.33 9.28 0.33L9.28 0.33L8.90 0.33Q8.58 0.33 8.51 0.05L8.51 0.05L7.23-4.58L6.63 0.33L5.63 0.33L6.48-6.63ZM16.55-6.63L18.04-6.63Q18.55-6.63 18.64-6.13L18.64-6.13L19.70 0.33L18.54 0.33L18.23-1.68L15.24-1.68L14.43 0.33L13.23 0.33L15.90-6.20Q16.08-6.63 16.55-6.63L16.55-6.63ZM17.63-5.61L16.82-5.61L15.64-2.70L18.07-2.70L17.63-5.61ZM21.24-6.63L24.24-6.63Q25.19-6.62 25.70-6.19Q26.21-5.76 26.21-4.94L26.21-4.94Q26.21-4.84 26.19-4.62L26.19-4.62L26.15-4.31Q26.04-3.47 25.56-2.98Q25.08-2.48 24.28-2.35L24.28-2.35L26.17 0.33L24.83 0.33L23.07-2.31L21.80-2.31L21.48 0.33L20.38 0.33L21.24-6.63ZM21.92-3.31L23.86-3.31Q24.39-3.32 24.68-3.53Q24.97-3.75 25.04-4.26L25.04-4.26L25.09-4.66Q25.10-4.73 25.10-4.84L25.10-4.84Q25.10-5.26 24.86-5.44Q24.62-5.62 24.15-5.63L24.15-5.63L22.21-5.63L21.92-3.31ZM29.27-5.61L27.10-5.61L27.22-6.63L32.71-6.63L32.59-5.61L30.36-5.61L29.65 0.33L28.55 0.33L29.27-5.61ZM35.36-6.63L38.35-6.63Q39.31-6.62 39.83-6.17Q40.36-5.72 40.36-4.88L40.36-4.88Q40.36-4.65 40.34-4.52L40.34-4.52L40.28-4.04Q40.15-3.02 39.50-2.48Q38.85-1.94 37.77-1.93L37.77-1.93L35.88-1.93L35.60 0.33L34.51 0.33L35.36-6.63ZM36.00-2.95L37.92-2.95Q38.49-2.96 38.80-3.20Q39.11-3.45 39.18-3.99L39.18-3.99L39.25-4.55Q39.26-4.62 39.26-4.73L39.26-4.73Q39.26-5.18 39.02-5.39Q38.77-5.60 38.25-5.61L38.25-5.61L36.33-5.61L36.00-2.95ZM41.51-6.63L44.51-6.63Q45.46-6.62 45.97-6.19Q46.48-5.76 46.48-4.94L46.48-4.94Q46.48-4.84 46.46-4.62L46.46-4.62L46.42-4.31Q46.31-3.47 45.83-2.98Q45.36-2.48 44.55-2.35L44.55-2.35L46.44 0.33L45.11 0.33L43.34-2.31L42.07-2.31L41.75 0.33L40.65 0.33L41.51-6.63ZM42.19-3.31L44.13-3.31Q44.66-3.32 44.95-3.53Q45.24-3.75 45.31-4.26L45.31-4.26L45.36-4.66Q45.37-4.73 45.37-4.84L45.37-4.84Q45.37-5.26 45.13-5.44Q44.89-5.62 44.42-5.63L44.42-5.63L42.48-5.63L42.19-3.31ZM50.53-6.67L51.22-6.67Q52.44-6.66 53.02-6.13Q53.59-5.61 53.59-4.49L53.59-4.49Q53.59-4.20 53.54-3.78L53.54-3.78L53.40-2.51Q53.20-1.00 52.48-0.32Q51.75 0.36 50.34 0.37L50.34 0.37L49.66 0.37Q48.43 0.36 47.86-0.16Q47.29-0.68 47.29-1.79L47.29-1.79Q47.29-2.08 47.33-2.51L47.33-2.51L47.47-3.78Q47.67-5.29 48.39-5.98Q49.12-6.66 50.53-6.67L50.53-6.67ZM48.58-3.84L48.42-2.46Q48.38-2.09 48.38-1.94L48.38-1.94Q48.38-1.26 48.70-0.96Q49.02-0.66 49.75-0.65L49.75-0.65L50.49-0.65Q51.34-0.66 51.75-1.08Q52.16-1.50 52.29-2.46L52.29-2.46L52.46-3.84Q52.50-4.21 52.50-4.36L52.50-4.36Q52.50-5.03 52.18-5.34Q51.86-5.64 51.12-5.65L51.12-5.65L50.38-5.65Q49.54-5.64 49.13-5.22Q48.71-4.79 48.58-3.84L48.58-3.84ZM54.98-6.63L57.86-6.63Q59.08-6.62 59.65-6.10Q60.23-5.57 60.23-4.45L60.23-4.45Q60.23-4.16 60.18-3.75L60.18-3.75L60.04-2.55Q59.84-1.04 59.12-0.36Q58.39 0.32 56.99 0.33L56.99 0.33L54.13 0.33L54.98-6.63ZM55.34-0.69L57.13-0.69Q57.98-0.69 58.39-1.11Q58.81-1.54 58.93-2.49L58.93-2.49L59.10-3.80Q59.14-4.17 59.14-4.32L59.14-4.32Q59.14-5.00 58.82-5.30Q58.50-5.61 57.76-5.61L57.76-5.61L55.96-5.61L55.34-0.69ZM63.50-0.65L63.87-0.65Q64.73-0.66 65.14-1.08Q65.56-1.49 65.69-2.43L65.69-2.43L66.20-6.63L67.30-6.63L66.79-2.48Q66.60-0.99 65.88-0.32Q65.15 0.36 63.74 0.37L63.74 0.37L63.38 0.37Q62.15 0.36 61.58-0.16Q61.00-0.68 61.00-1.79L61.00-1.79Q61.00-2.07 61.05-2.48L61.05-2.48L61.56-6.63L62.65-6.63L62.14-2.43Q62.10-2.06 62.10-1.93L62.10-1.93Q62.10-1.25 62.43-0.95Q62.75-0.66 63.50-0.65L63.50-0.65ZM71.02-6.63L71.43-6.63Q71.82-6.63 72.54-6.61L72.54-6.61L73.12-6.60L72.98-5.57L72.44-5.59Q71.52-5.61 71.28-5.61L71.28-5.61L70.88-5.61Q70.03-5.61 69.62-5.18Q69.21-4.76 69.08-3.80L69.08-3.80L68.91-2.46Q68.87-2.09 68.87-1.94L68.87-1.94Q68.87-1.26 69.19-0.95Q69.51-0.65 70.25-0.65L70.25-0.65L70.69-0.65Q71.18-0.65 72.28-0.71L72.28-0.71L72.52-0.72L72.44 0.30Q71.53 0.37 70.60 0.37L70.60 0.37L70.15 0.37Q68.93 0.36 68.35-0.16Q67.78-0.68 67.78-1.79L67.78-1.79Q67.78-2.08 67.83-2.51L67.83-2.51L67.96-3.75Q68.16-5.26 68.89-5.94Q69.61-6.62 71.02-6.63L71.02-6.63ZM75.80-5.61L73.63-5.61L73.75-6.63L79.25-6.63L79.13-5.61L76.89-5.61L76.18 0.33L75.09 0.33L75.80-5.61ZM79.14 0.33L79.99-6.63L81.09-6.63L80.23 0.33L79.14 0.33ZM84.86-6.67L85.55-6.67Q86.77-6.66 87.35-6.13Q87.92-5.61 87.92-4.49L87.92-4.49Q87.92-4.20 87.87-3.78L87.87-3.78L87.73-2.51Q87.53-1.00 86.81-0.32Q86.08 0.36 84.68 0.37L84.68 0.37L83.99 0.37Q82.77 0.36 82.19-0.16Q81.62-0.68 81.62-1.79L81.62-1.79Q81.62-2.08 81.66-2.51L81.66-2.51L81.80-3.78Q82.00-5.29 82.72-5.98Q83.45-6.66 84.86-6.67L84.86-6.67ZM82.91-3.84L82.75-2.46Q82.71-2.09 82.71-1.94L82.71-1.94Q82.71-1.26 83.03-0.96Q83.35-0.66 84.08-0.65L84.08-0.65L84.82-0.65Q85.67-0.66 86.08-1.08Q86.49-1.50 86.62-2.46L86.62-2.46L86.79-3.84Q86.83-4.21 86.83-4.36L86.83-4.36Q86.83-5.03 86.51-5.34Q86.19-5.64 85.45-5.65L85.45-5.65L84.71-5.65Q83.87-5.64 83.46-5.22Q83.04-4.79 82.91-3.84L82.91-3.84ZM88.46 0.33L89.31-6.63L90.36-6.63L93.16-1.50L93.21-1.42L93.85-6.63L94.89-6.63L94.04 0.33L92.99 0.33L90.18-4.77L90.15-4.86L89.51 0.33L88.46 0.33ZM98.03-6.63L99.24-6.63L100.76-0.94L100.80-0.94L103.74-6.63L104.95-6.63L104.09 0.33L103.09 0.33L103.69-4.58L101.29 0.05Q101.15 0.33 100.83 0.33L100.83 0.33L100.45 0.33Q100.13 0.33 100.06 0.05L100.06 0.05L98.78-4.58L98.18 0.33L97.18 0.33L98.03-6.63ZM108.10-6.63L109.58-6.63Q110.10-6.63 110.19-6.13L110.19-6.13L111.24 0.33L110.08 0.33L109.78-1.68L106.78-1.68L105.98 0.33L104.78 0.33L107.45-6.20Q107.63-6.63 108.10-6.63L108.10-6.63ZM109.18-5.61L108.37-5.61L107.19-2.70L109.62-2.70L109.18-5.61ZM111.93 0.33L112.78-6.63L113.83-6.63L116.63-1.50L116.68-1.42L117.32-6.63L118.36-6.63L117.51 0.33L116.46 0.33L113.65-4.77L113.62-4.86L112.98 0.33L111.93 0.33ZM121.52-6.63L123.00-6.63Q123.52-6.63 123.60-6.13L123.60-6.13L124.66 0.33L123.50 0.33L123.20-1.68L120.20-1.68L119.40 0.33L118.20 0.33L120.87-6.20Q121.05-6.63 121.52-6.63L121.52-6.63ZM122.59-5.61L121.79-5.61L120.61-2.70L123.04-2.70L122.59-5.61ZM128.18-0.65L128.64-0.65Q129.10-0.65 129.71-0.71L129.71-0.71L129.94-2.55L128.29-2.55L128.41-3.57L131.15-3.57L130.69 0.21Q129.47 0.37 128.54 0.37L128.54 0.37L128.06 0.37Q126.71 0.36 126.10-0.16Q125.50-0.68 125.50-1.80L125.50-1.80Q125.50-2.08 125.54-2.51L125.54-2.51L125.68-3.75Q125.81-4.77 126.18-5.40Q126.55-6.03 127.23-6.32Q127.91-6.62 128.96-6.63L128.96-6.63L129.21-6.63Q130.33-6.63 131.35-6.60L131.35-6.60L131.22-5.57L130.45-5.59Q129.47-5.61 129.09-5.61L129.09-5.61L128.81-5.61Q128.13-5.61 127.72-5.42Q127.31-5.23 127.10-4.84Q126.88-4.45 126.80-3.80L126.80-3.80L126.63-2.46Q126.59-2.09 126.59-1.96L126.59-1.96Q126.59-1.26 126.95-0.96Q127.30-0.66 128.18-0.65L128.18-0.65ZM131.77 0.33L132.62-6.63L137.11-6.63L136.99-5.63L133.59-5.63L133.35-3.69L136.32-3.69L136.20-2.70L133.23-2.70L132.98-0.68L136.46-0.68L136.34 0.33L131.77 0.33ZM140.97 0.37L140.84 0.37Q139.63 0.37 138.84 0.25L138.84 0.25L138.97-0.79Q140.10-0.65 140.97-0.65L140.97-0.65L141.09-0.65Q141.67-0.65 142.01-0.76Q142.35-0.87 142.50-1.08Q142.64-1.30 142.68-1.63L142.68-1.63Q142.70-1.80 142.70-1.86L142.70-1.86Q142.70-2.19 142.55-2.35Q142.40-2.52 142.11-2.59Q141.82-2.66 141.23-2.74L141.23-2.74Q140.57-2.81 140.18-2.97Q139.79-3.12 139.60-3.43Q139.41-3.73 139.41-4.24L139.41-4.24Q139.41-4.44 139.44-4.69L139.44-4.69Q139.56-5.74 140.14-6.18Q140.72-6.63 141.93-6.63L141.93-6.63L142.58-6.63Q143.28-6.63 144.14-6.61L144.14-6.61L144.02-5.59Q143.52-5.59 143.26-5.60L143.26-5.60L142.46-5.61L141.81-5.61Q141.13-5.61 140.82-5.37Q140.51-5.14 140.51-4.48L140.51-4.48Q140.51-4.19 140.62-4.05Q140.73-3.90 140.93-3.85Q141.12-3.79 141.56-3.73L141.56-3.73Q141.64-3.72 141.89-3.68L141.89-3.68Q142.58-3.58 142.99-3.41Q143.39-3.25 143.60-2.93Q143.80-2.62 143.80-2.10L143.80-2.10Q143.80-1.90 143.77-1.68L143.77-1.68Q143.68-0.91 143.37-0.46Q143.06-0.02 142.48 0.18Q141.89 0.37 140.97 0.37L140.97 0.37ZM146.47 0.33L146.84-2.63L144.71-6.63L146.02-6.63L147.42-3.73L147.56-3.73L149.63-6.63L150.97-6.63L147.92-2.61L147.57 0.33L146.47 0.33ZM152.60 0.37L152.48 0.37Q151.27 0.37 150.48 0.25L150.48 0.25L150.61-0.79Q151.74-0.65 152.60-0.65L152.60-0.65L152.72-0.65Q153.31-0.65 153.65-0.76Q153.99-0.87 154.13-1.08Q154.28-1.30 154.32-1.63L154.32-1.63Q154.34-1.80 154.34-1.86L154.34-1.86Q154.34-2.19 154.19-2.35Q154.04-2.52 153.75-2.59Q153.46-2.66 152.87-2.74L152.87-2.74Q152.20-2.81 151.82-2.97Q151.43-3.12 151.24-3.43Q151.05-3.73 151.05-4.24L151.05-4.24Q151.05-4.44 151.07-4.69L151.07-4.69Q151.19-5.74 151.78-6.18Q152.36-6.63 153.57-6.63L153.57-6.63L154.22-6.63Q154.92-6.63 155.77-6.61L155.77-6.61L155.65-5.59Q155.16-5.59 154.90-5.60L154.90-5.60L154.10-5.61L153.45-5.61Q152.77-5.61 152.46-5.37Q152.15-5.14 152.15-4.48L152.15-4.48Q152.15-4.19 152.26-4.05Q152.37-3.90 152.57-3.85Q152.76-3.79 153.20-3.73L153.20-3.73Q153.28-3.72 153.53-3.68L153.53-3.68Q154.22-3.58 154.62-3.41Q155.03-3.25 155.24-2.93Q155.44-2.62 155.44-2.10L155.44-2.10Q155.44-1.90 155.41-1.68L155.41-1.68Q155.32-0.91 155.01-0.46Q154.70-0.02 154.11 0.18Q153.53 0.37 152.60 0.37L152.60 0.37ZM158.46-5.61L156.29-5.61L156.42-6.63L161.91-6.63L161.79-5.61L159.56-5.61L158.84 0.33L157.75 0.33L158.46-5.61ZM161.80 0.33L162.66-6.63L167.14-6.63L167.02-5.63L163.63-5.63L163.39-3.69L166.36-3.69L166.24-2.70L163.27-2.70L163.02-0.68L166.49-0.68L166.37 0.33L161.80 0.33ZM168.14-6.63L169.34-6.63L170.87-0.94L170.91-0.94L173.85-6.63L175.05-6.63L174.20 0.33L173.20 0.33L173.80-4.58L171.40 0.05Q171.25 0.33 170.94 0.33L170.94 0.33L170.56 0.33Q170.23 0.33 170.17 0.05L170.17 0.05L168.89-4.58L168.29 0.33L167.28 0.33L168.14-6.63Z"
                        transform="translate(-0.046358148893360165, 6.666301810865192)"></path>
                    </g>
                </g>
            </g>
        </g>
    </g>
    <defs v-gra="od"></defs>
</svg>